<svg width="46" height="30" viewBox="0 0 46 30" fill="none" xmlns="http://www.w3.org/2000/svg">
<path d="M16.7935 22.091C15.4693 22.091 14.3945 21.0186 14.3945 19.692V10.0962C14.3945 8.7696 15.4693 7.69727 16.7935 7.69727C18.1177 7.69727 19.1924 8.7696 19.1924 10.0962V19.692C19.1924 21.0186 18.1177 22.091 16.7935 22.091Z" fill="black"/>
<path d="M9.58254 22.091C8.25832 22.091 7.18359 21.0186 7.18359 19.692V10.0962C7.18359 8.7696 8.25832 7.69727 9.58254 7.69727C10.9068 7.69727 11.9815 8.7696 11.9815 10.0962V19.692C11.9815 21.0186 10.9068 22.091 9.58254 22.091Z" fill="black"/>
<path d="M31.188 22.091C29.8638 22.091 28.7891 21.0186 28.7891 19.692V10.0962C28.7891 8.7696 29.8638 7.69727 31.188 7.69727C32.5122 7.69727 33.587 8.7696 33.587 10.0962V19.692C33.587 21.0186 32.5122 22.091 31.188 22.091Z" fill="black"/>
<path d="M23.981 22.091C22.6568 22.091 21.582 21.0186 21.582 19.692V10.0962C21.582 8.7696 22.6568 7.69727 23.981 7.69727C25.3052 7.69727 26.3799 8.7696 26.3799 10.0962V19.692C26.3799 21.0186 25.3052 22.091 23.981 22.091Z" fill="black"/>
<path d="M40.7821 7.69684C40.7821 3.72898 37.5531 0.5 33.5853 0.5H7.19684C3.22898 0.5 0 3.72898 0 7.69684V22.0905C0 26.0584 3.22898 29.2874 7.19684 29.2874H33.5853C37.5531 29.2874 40.7821 26.0584 40.7821 22.0905C43.4305 22.0905 45.58 19.9411 45.58 17.2926V12.4947C45.58 9.8463 43.4305 7.69684 40.7821 7.69684ZM35.9842 22.0905C35.9842 23.4147 34.9071 24.4895 33.5853 24.4895H7.19684C5.87502 24.4895 4.79789 23.4147 4.79789 22.0905V7.69684C4.79789 6.37262 5.87502 5.29789 7.19684 5.29789H33.5853C34.9071 5.29789 35.9842 6.37262 35.9842 7.69684V22.0905Z" fill="black"/>
</svg>
