<svg width="40" height="41" viewBox="0 0 40 41" fill="none" xmlns="http://www.w3.org/2000/svg">
<path d="M37.7778 32.7222H33.98C33.4022 31.7311 32.3378 31.0556 31.1111 31.0556H22.2222C20.3844 31.0556 18.8889 32.5511 18.8889 34.3889V34.6667H8.75111C5.15111 34.6667 2.22222 31.7378 2.22222 28.14C2.22222 24.5422 5.15111 21.6111 8.75111 21.6111H31.2511C36.0733 21.6111 40 17.6844 40 12.8622C40 8.04 36.0733 4.11111 31.2489 4.11111H21.1111V3.83333C21.1111 1.99556 19.6155 0.5 17.7778 0.5H8.88888C7.66 0.5 6.59777 1.17556 6.02 2.16667H2.22222C0.997777 2.16667 0 3.16444 0 4.38889V6.05556C0 7.28 0.997777 8.27778 2.22222 8.27778H6.02C6.59777 9.26889 7.66 9.94444 8.88888 9.94444H17.7778C19.6155 9.94444 21.1111 8.44889 21.1111 6.61111V6.33333H31.2511C34.8511 6.33333 37.78 9.26222 37.78 12.8622C37.78 16.4622 34.8489 19.3889 31.2511 19.3889H8.75111C3.92666 19.3889 0 23.3156 0 28.14C0 32.9644 3.92666 36.8911 8.75111 36.8911H18.8889V37.1667C18.8889 39.0044 20.3844 40.5 22.2222 40.5H31.1111C32.34 40.5 33.4022 39.8244 33.98 38.8333H37.7778C39.0022 38.8333 40 37.8356 40 36.6111V34.9444C40 33.72 39.0022 32.7222 37.7778 32.7222ZM2.22222 4.38889H5.55555V6.05556H2.22222V4.38889ZM18.8889 6.61111C18.8889 7.22444 18.3911 7.72222 17.7778 7.72222H8.88888C8.27555 7.72222 7.77777 7.22444 7.77777 6.61111V3.83333C7.77777 3.22 8.27555 2.72222 8.88888 2.72222H17.7778C18.3911 2.72222 18.8889 3.22 18.8889 3.83333V6.61111ZM31.1111 38.2778H22.2222C21.6089 38.2778 21.1111 37.78 21.1111 37.1667V34.3889C21.1111 33.7756 21.6089 33.2778 22.2222 33.2778H31.1111C31.7244 33.2778 32.2222 33.7756 32.2222 34.3889V37.1667C32.2222 37.78 31.7244 38.2778 31.1111 38.2778ZM37.7778 36.6111H34.4444V34.9444H37.7778V36.6111Z" fill="black"/>
<rect width="13.3333" height="6.66667" transform="matrix(-1 0 0 1 33.3398 32.498)" fill="black"/>
<rect width="13.3333" height="4" transform="matrix(-1 0 0 1 38.668 33.833)" fill="black"/>
<rect x="6.66016" y="1.83203" width="13.3333" height="6.66667" fill="black"/>
<rect x="1.33203" y="3.16699" width="13.3333" height="4" fill="black"/>
</svg>
