<svg width="50" height="51" viewBox="0 0 50 51" fill="none" xmlns="http://www.w3.org/2000/svg">
<g clip-path="url(#clip0_609_337)">
<path d="M32.8125 13C32.8125 8.68528 29.3147 5.1875 25 5.1875C20.6853 5.1875 17.1875 8.68528 17.1875 13V25.5C17.1875 29.8147 20.6853 33.3125 25 33.3125C29.3147 33.3125 32.8125 29.8147 32.8125 25.5V13Z" stroke="black" stroke-width="3.125" stroke-linecap="round" stroke-linejoin="round"/>
<path d="M25 39.5625V45.8125" stroke="black" stroke-width="3.125" stroke-linecap="round" stroke-linejoin="round"/>
<path d="M38.9844 27.0625C38.579 30.4867 36.9314 33.6431 34.3539 35.9335C31.7764 38.2239 28.4481 39.489 25 39.489C21.5519 39.489 18.2236 38.2239 15.6461 35.9335C13.0686 33.6431 11.421 30.4867 11.0156 27.0625" stroke="black" stroke-width="3.125" stroke-linecap="round" stroke-linejoin="round"/>
<rect x="18" y="6.5" width="14" height="26" rx="7" fill="black"/>
</g>
<defs>
<clipPath id="clip0_609_337">
<rect width="50" height="50" fill="white" transform="translate(0 0.5)"/>
</clipPath>
</defs>
</svg>
