<svg width="117" height="37" viewBox="0 0 117 37" fill="none" xmlns="http://www.w3.org/2000/svg">
<rect x="1.50687" y="2.17875" width="32.58" height="32.58" rx="1.3575" stroke="black" stroke-width="1.3575"/>
<path d="M10.8818 11.1678H11.8745L12.952 16.1142L14.0804 11.1678H15.2682L16.3797 16.1312L17.4614 11.1678H18.4117L17.0542 16.9287H15.7391L14.8016 12.7671L14.6488 11.7023L14.4919 12.7671L13.5501 16.9287H12.2308L10.8818 11.1678ZM21.2547 11.9823H22.0862V16.8439H21.2547V11.9823ZM19.316 14.0228H24.0249V14.7652H19.316V14.0228Z" fill="black"/>
<path d="M10.0375 20.4012H11.0005V25.3646C11.1192 25.3646 11.2423 25.3632 11.3695 25.3603C11.4996 25.3575 11.6283 25.3547 11.7556 25.3519C11.8857 25.349 12.0115 25.3462 12.1331 25.3434C12.2576 25.3377 12.3749 25.3321 12.4852 25.3264C12.7454 25.3151 12.9999 25.3038 13.2488 25.2925C13.2488 25.3405 13.2418 25.4127 13.2276 25.5088C13.2163 25.605 13.2022 25.7025 13.1852 25.8015C13.1682 25.8977 13.1513 25.9825 13.1343 26.0561C13.1201 26.1268 13.1088 26.1621 13.1003 26.1621H10.0375V20.4012ZM14.7938 21.0927C14.7146 21.0927 14.6396 21.0786 14.5689 21.0503C14.5011 21.022 14.4402 20.9838 14.3865 20.9357C14.3356 20.8877 14.2946 20.8325 14.2635 20.7703C14.2324 20.7052 14.2168 20.636 14.2168 20.5624C14.2168 20.4861 14.2324 20.4154 14.2635 20.3503C14.2946 20.2853 14.3356 20.2287 14.3865 20.1806C14.4402 20.1325 14.5011 20.0958 14.5689 20.0703C14.6396 20.042 14.7146 20.0279 14.7938 20.0279C14.8729 20.0279 14.9479 20.042 15.0186 20.0703C15.0893 20.0958 15.1501 20.1325 15.201 20.1806C15.2547 20.2287 15.2972 20.2853 15.3283 20.3503C15.3594 20.4154 15.3749 20.4861 15.3749 20.5624C15.3749 20.636 15.3594 20.7052 15.3283 20.7703C15.2972 20.8325 15.2547 20.8877 15.201 20.9357C15.1501 20.9838 15.0893 21.022 15.0186 21.0503C14.9479 21.0786 14.8729 21.0927 14.7938 21.0927ZM14.3059 21.8266H15.1883V25.4494L15.4386 25.6276V26.1621H15.1968L15.1883 26.1536V26.1621C14.9083 26.1621 14.6905 26.1055 14.535 25.9924C14.3823 25.8793 14.3059 25.6926 14.3059 25.4325V21.8266ZM16.6908 22.6029L16.3557 22.2593V21.7799H17.1362L17.5011 22.1108L17.6241 22.0854C17.6439 22.0684 17.6891 22.0387 17.7598 21.9963C17.8334 21.9539 17.9224 21.9114 18.0271 21.869C18.1346 21.8266 18.2562 21.7898 18.3919 21.7587C18.5277 21.7248 18.6705 21.7078 18.8204 21.7078C19.0579 21.7078 19.2686 21.7432 19.4525 21.8139C19.6391 21.8846 19.7961 21.9864 19.9233 22.1193C20.0506 22.2494 20.1468 22.4064 20.2118 22.5902C20.2769 22.774 20.3094 22.9805 20.3094 23.2095V26.1621H19.3973V23.2986C19.3973 22.9904 19.3323 22.7641 19.2022 22.6199C19.0749 22.4728 18.8713 22.3993 18.5913 22.3993C18.4527 22.3993 18.324 22.412 18.2053 22.4375C18.0865 22.4601 17.9818 22.487 17.8913 22.5181C17.7867 22.552 17.6891 22.5916 17.5986 22.6369V26.1621H16.6908V22.6029ZM21.6168 20.0534H22.4822V23.2817L22.4397 23.8968L22.6646 23.6295L24.0263 21.8266H25.0529L23.6742 23.5744L23.3221 23.9095L23.5979 24.1598L25.1293 26.1621H24.0984L22.6391 24.2022L22.4397 23.9477L22.4822 24.7198V26.1621H21.6168V20.0534Z" fill="black"/>
<path d="M62.3626 9.37873L65.501 12.3519L62.3646 15.3226L62.3626 9.37873ZM62.3626 27.5788L65.501 24.6063L62.3646 21.635L62.3626 27.5788ZM59.0119 18.4788L52.2275 12.0351L54.1939 10.1728L59.5985 15.2953V3.01958L69.4275 12.3306L62.9377 18.4788L69.4287 24.6288L59.5991 33.9398V21.6635L54.1933 26.7866L52.2269 24.9231L59.0119 18.4788ZM60.8294 36.46C69.1175 36.46 74.8281 32.7299 74.8281 18.4794C74.8281 4.22952 69.1175 0.5 60.8294 0.5C52.542 0.5 46.8281 4.23013 46.8281 18.4794C46.8281 32.7299 52.5413 36.46 60.8294 36.46Z" fill="#281E1E"/>
<path d="M115.161 27.6667H112.313C111.88 26.9233 111.081 26.4167 110.161 26.4167H103.495C102.116 26.4167 100.995 27.5383 100.995 28.9167V29.125H93.3915C90.6915 29.125 88.4948 26.9283 88.4948 24.23C88.4948 21.5317 90.6915 19.3333 93.3915 19.3333H110.266C113.883 19.3333 116.828 16.3883 116.828 12.7717C116.828 9.155 113.883 6.20833 110.265 6.20833H102.661V6C102.661 4.62167 101.54 3.5 100.161 3.5H93.4948C92.5731 3.5 91.7765 4.00667 91.3431 4.75H88.4948C87.5765 4.75 86.8281 5.49833 86.8281 6.41667V7.66667C86.8281 8.585 87.5765 9.33333 88.4948 9.33333H91.3431C91.7765 10.0767 92.5731 10.5833 93.4948 10.5833H100.161C101.54 10.5833 102.661 9.46167 102.661 8.08333V7.875H110.266C112.966 7.875 115.163 10.0717 115.163 12.7717C115.163 15.4717 112.965 17.6667 110.266 17.6667H93.3915C89.7731 17.6667 86.8281 20.6117 86.8281 24.23C86.8281 27.8483 89.7731 30.7933 93.3915 30.7933H100.995V31C100.995 32.3783 102.116 33.5 103.495 33.5H110.161C111.083 33.5 111.88 32.9933 112.313 32.25H115.161C116.08 32.25 116.828 31.5017 116.828 30.5833V29.3333C116.828 28.415 116.08 27.6667 115.161 27.6667ZM88.4948 6.41667H90.9948V7.66667H88.4948V6.41667ZM100.995 8.08333C100.995 8.54333 100.621 8.91667 100.161 8.91667H93.4948C93.0348 8.91667 92.6615 8.54333 92.6615 8.08333V6C92.6615 5.54 93.0348 5.16667 93.4948 5.16667H100.161C100.621 5.16667 100.995 5.54 100.995 6V8.08333ZM110.161 31.8333H103.495C103.035 31.8333 102.661 31.46 102.661 31V28.9167C102.661 28.4567 103.035 28.0833 103.495 28.0833H110.161C110.621 28.0833 110.995 28.4567 110.995 28.9167V31C110.995 31.46 110.621 31.8333 110.161 31.8333ZM115.161 30.5833H112.661V29.3333H115.161V30.5833Z" fill="black"/>
<rect width="10" height="5" transform="matrix(-1 0 0 1 111.828 27.5)" fill="black"/>
<rect width="10" height="3" transform="matrix(-1 0 0 1 115.828 28.5)" fill="black"/>
<rect x="91.8281" y="4.5" width="10" height="5" fill="black"/>
<rect x="87.8281" y="5.5" width="10" height="3" fill="black"/>
</svg>
