<svg width="40" height="42" viewBox="0 0 40 42" fill="none" xmlns="http://www.w3.org/2000/svg">
<ellipse cx="19.694" cy="20.6786" rx="19.694" ry="20.1864" fill="#505050" fill-opacity="0.2"/>
<path d="M25.9784 33.9722L24.1074 40.3235" stroke="black" stroke-width="0.492351"/>
<path d="M13.7695 33.8735L15.9851 40.2741" stroke="black" stroke-width="0.492351"/>
<path d="M13.916 7.13892L15.6885 1.37842" stroke="black" stroke-width="0.492351"/>
<path d="M26.1283 7.18816L24.3066 1.37842" stroke="black" stroke-width="0.492351"/>
<path d="M0.260598 20.1274L0.26063 20.1265C0.319115 18.2842 0.395406 17.7696 0.824554 16.0042C2.62249 8.65741 8.70823 2.85386 16.1226 1.41568C16.6091 1.3223 16.9669 1.22855 17.212 1.0988C17.3386 1.03175 17.4461 0.949673 17.5262 0.843285C17.6064 0.736832 17.6494 0.619156 17.667 0.495281C17.6676 0.493015 17.6697 0.486 17.6755 0.474548C17.6827 0.460453 17.6935 0.443489 17.7082 0.425507C17.7364 0.390919 17.7708 0.36237 17.8023 0.345062C17.8066 0.343948 17.8162 0.341572 17.8329 0.338478C17.8661 0.332321 17.9128 0.325787 17.9736 0.319241C18.0944 0.30621 18.2574 0.294537 18.4511 0.284565C18.8378 0.26466 19.3356 0.25211 19.8409 0.247822C20.3461 0.243534 20.856 0.247532 21.2666 0.260471C21.472 0.266949 21.6507 0.275604 21.7905 0.286373C21.9382 0.297745 22.0219 0.310158 22.0514 0.318512L22.0619 0.321484L22.062 0.321247C22.1122 0.333073 22.1689 0.366772 22.2037 0.512608L22.4431 0.455589L22.2035 0.511971C22.2287 0.61898 22.2712 0.724159 22.3155 0.809799C22.3546 0.885448 22.412 0.979168 22.4811 1.03726C22.521 1.0711 22.5681 1.09165 22.5916 1.10162C22.6233 1.11502 22.66 1.12813 22.6987 1.14075C22.7764 1.16616 22.8759 1.1941 22.9883 1.22299C23.214 1.28098 23.5039 1.34591 23.8022 1.40556L23.8025 1.40564C29.9275 2.6209 35.1371 6.64574 37.7899 12.2234L37.7902 12.2239C40.2791 17.4253 40.4053 23.2956 38.1499 28.5841C35.7204 34.279 30.5678 38.6053 24.5326 40.0145L24.5314 40.0148C24.2106 40.0914 23.5831 40.2083 22.9904 40.3079C22.391 40.4086 21.8615 40.4857 21.7184 40.4903C21.718 40.4904 21.7176 40.4904 21.7173 40.4904L21.7247 40.7364C21.6952 40.7364 21.6165 40.8447 21.5574 40.9825L0.260598 20.1274ZM0.260598 20.1274C0.153607 23.1524 0.639146 25.7737 1.806 28.5256L1.80605 28.5257C4.33287 34.4929 9.68842 38.8576 16.0847 40.1506C16.4262 40.2189 16.7673 40.2798 17.0431 40.3235C17.3285 40.3688 17.5213 40.3919 17.5815 40.3919C17.8032 40.3919 18.002 40.4137 18.167 40.4944C18.3464 40.5822 18.4565 40.7242 18.5279 40.8994L18.5309 40.9069L18.5334 40.9145C18.5376 40.927 18.541 40.9366 18.5437 40.9438C18.5557 40.947 18.5747 40.9512 18.6033 40.9553C18.7848 40.9816 19.143 40.9823 19.9139 40.9823H21.2844L21.3333 40.8805L0.260598 20.1274ZM17.8129 0.33955L17.8097 0.341167C17.8107 0.340672 17.8118 0.340137 17.8129 0.33955Z" stroke="black" stroke-width="0.492351"/>
<circle cx="19.9346" cy="20.5425" r="14.5244" stroke="black" stroke-width="0.492351"/>
<circle cx="20.022" cy="20.4321" r="11.225" stroke="black" stroke-width="0.492351"/>
<path d="M13.916 7.10059V9.17265C13.916 9.37939 14.1235 9.522 14.3174 9.45052C18.6883 7.83978 21.32 7.69882 25.717 9.4357C25.9125 9.51292 26.1263 9.3701 26.1263 9.15993V7.23739" stroke="black" stroke-width="0.492351"/>
<path d="M13.7695 33.8832V31.6517C13.7695 31.4426 13.9815 31.2999 14.1763 31.3759C18.7102 33.1436 21.3327 33.2766 25.5589 31.4055C25.7561 31.3182 25.9798 31.4613 25.9798 31.6769V33.9722" stroke="black" stroke-width="0.492351"/>
</svg>
