<svg width="41" height="42" viewBox="0 0 41 42" fill="none" xmlns="http://www.w3.org/2000/svg">
<ellipse cx="20.0046" cy="20.9989" rx="19.694" ry="20.1864" fill="#505050" fill-opacity="0.2"/>
<path d="M26.2889 34.2925L24.418 40.6438" stroke="black" stroke-width="0.492351"/>
<path d="M14.0801 34.1938L16.2957 40.5944" stroke="black" stroke-width="0.492351"/>
<path d="M14.2266 7.45924L15.999 1.69873" stroke="black" stroke-width="0.492351"/>
<path d="M26.4389 7.50847L24.6172 1.69873" stroke="black" stroke-width="0.492351"/>
<path d="M5.45205 19.9551L7.58073 19.3745C7.82691 20.4084 7.67921 21.787 7.5315 21.9347L5.47382 21.5377C5.33481 21.5109 5.23438 21.3892 5.23438 21.2477V20.2401C5.23438 20.1069 5.32353 19.9902 5.45205 19.9551Z" fill="black"/>
<path d="M0.571145 20.4477L0.571177 20.4468C0.629662 18.6045 0.705953 18.0899 1.1351 16.3246C2.93303 8.97772 9.01877 3.17417 16.4332 1.736C16.9196 1.64262 17.2774 1.54886 17.5225 1.41911C17.6492 1.35206 17.7566 1.26999 17.8368 1.1636C17.917 1.05714 17.9599 0.939468 17.9776 0.815594C17.9782 0.813328 17.9803 0.806313 17.9861 0.794861C17.9932 0.780766 18.0041 0.763802 18.0188 0.745819C18.047 0.711231 18.0813 0.682682 18.1128 0.665375C18.1171 0.664261 18.1268 0.661884 18.1435 0.658791C18.1766 0.652634 18.2234 0.646099 18.2841 0.639553C18.405 0.626522 18.5679 0.614849 18.7617 0.604877C19.1483 0.584972 19.6462 0.572422 20.1515 0.568134C20.6567 0.563847 21.1665 0.567844 21.5771 0.580784C21.7826 0.587261 21.9612 0.595917 22.1011 0.606686C22.2487 0.618057 22.3324 0.63047 22.362 0.638824L22.3725 0.641796L22.3725 0.64156C22.4228 0.653385 22.4795 0.687084 22.5142 0.83292L22.7537 0.775902L22.514 0.832283C22.5392 0.939293 22.5818 1.04447 22.6261 1.13011C22.6652 1.20576 22.7226 1.29948 22.7916 1.35757C22.8316 1.39141 22.8786 1.41196 22.9022 1.42193C22.9339 1.43533 22.9706 1.44844 23.0092 1.46106C23.0869 1.48647 23.1865 1.51441 23.2989 1.5433C23.5245 1.60129 23.8145 1.66622 24.1127 1.72588L24.1131 1.72595C30.238 2.94121 35.4477 6.96605 38.1005 12.5437L38.1007 12.5442C40.5896 17.7456 40.7159 23.6159 38.4605 28.9044C36.0309 34.5993 30.8783 38.9256 24.8431 40.3348L24.8419 40.3351C24.5211 40.4117 23.8936 40.5286 23.3009 40.6282C22.7016 40.7289 22.1721 40.806 22.029 40.8107C22.0286 40.8107 22.0282 40.8107 22.0278 40.8107L22.0353 41.0568C22.0057 41.0568 21.927 41.165 21.868 41.3028L0.571145 20.4477ZM0.571145 20.4477C0.464154 23.4727 0.949693 26.0941 2.11655 28.8459L2.1166 28.846C4.64341 34.8132 9.99897 39.1779 16.3953 40.4709C16.7367 40.5392 17.0779 40.6001 17.3536 40.6439C17.639 40.6891 17.8319 40.7122 17.892 40.7122C18.1137 40.7122 18.3126 40.734 18.4775 40.8147C18.657 40.9025 18.7671 41.0446 18.8384 41.2198L18.8415 41.2272L18.844 41.2348C18.8482 41.2473 18.8516 41.2569 18.8542 41.2641C18.8662 41.2673 18.8852 41.2715 18.9139 41.2757C19.0954 41.3019 19.4536 41.3027 20.2244 41.3027H21.595L21.6439 41.2008L0.571145 20.4477ZM18.1235 0.659863L18.1202 0.66148C18.1212 0.660984 18.1223 0.66045 18.1235 0.659863Z" stroke="black" stroke-width="0.492351"/>
<circle cx="20.2451" cy="20.8628" r="14.5244" stroke="black" stroke-width="0.492351"/>
<circle cx="20.3325" cy="20.7525" r="11.225" stroke="black" stroke-width="0.492351"/>
<path d="M7.53198 20.6541C7.53198 21.1652 7.46256 21.6177 7.35715 21.934C7.30401 22.0934 7.24617 22.2046 7.19389 22.271C7.16647 22.3057 7.1476 22.32 7.1381 22.3255C7.1286 22.32 7.10974 22.3058 7.08231 22.271C7.03004 22.2046 6.97219 22.0934 6.91906 21.934C6.81365 21.6177 6.74422 21.1652 6.74422 20.6541C6.74422 20.1429 6.81365 19.6904 6.91906 19.3741C6.97219 19.2147 7.03004 19.1035 7.08231 19.0372C7.10974 19.0024 7.1286 18.9881 7.1381 18.9826C7.1476 18.9881 7.16647 19.0024 7.19389 19.0372C7.24617 19.1035 7.30401 19.2147 7.35715 19.3741C7.46256 19.6904 7.53198 20.1429 7.53198 20.6541ZM7.13098 22.3288C7.13098 22.3288 7.1313 22.3287 7.13194 22.3286L7.13098 22.3288ZM7.14427 22.3286C7.14491 22.3287 7.14523 22.3288 7.14522 22.3288L7.14427 22.3286ZM7.14427 18.9795C7.1449 18.9793 7.14522 18.9792 7.14522 18.9793C7.14523 18.9793 7.14491 18.9794 7.14427 18.9795ZM7.13194 18.9795C7.1313 18.9794 7.13098 18.9793 7.13098 18.9793C7.13098 18.9792 7.1313 18.9793 7.13194 18.9795Z" stroke="black" stroke-width="0.492351"/>
<path d="M14.2266 7.4209V9.49297C14.2266 9.6997 14.434 9.84231 14.628 9.77083C18.9988 8.16009 21.6306 8.01913 26.0276 9.75601C26.223 9.83323 26.4369 9.69042 26.4369 9.48024V7.5577" stroke="black" stroke-width="0.492351"/>
<path d="M14.0801 34.2035V31.972C14.0801 31.7629 14.2921 31.6203 14.4869 31.6962C19.0207 33.4639 21.6432 33.597 25.8695 31.7258C26.0667 31.6385 26.2904 31.7816 26.2904 31.9972V34.2925" stroke="black" stroke-width="0.492351"/>
</svg>
