<svg width="38" height="41" viewBox="0 0 38 41" fill="none" xmlns="http://www.w3.org/2000/svg">
<path d="M5.5024 29.0752C7.59203 26.5657 8.73633 23.4031 8.73633 20.1371C8.73633 16.8712 7.59203 13.7085 5.5024 11.1991" stroke="black" stroke-width="1.90416" stroke-linecap="round" stroke-linejoin="round"/>
<path d="M10.022 33.6196C13.2917 29.9093 15.0957 25.1332 15.0957 20.1871C15.0957 15.2411 13.2917 10.465 10.022 6.75465" stroke="black" stroke-width="1.90416" stroke-linecap="round" stroke-linejoin="round"/>
<path d="M16.3624 35.6255C19.6342 31.3891 21.4395 25.9358 21.4395 20.2886C21.4395 14.6413 19.6342 9.18806 16.3624 4.95167" stroke="black" stroke-width="1.90416" stroke-linecap="round" stroke-linejoin="round"/>
<path d="M1.00091 24.5933C1.91637 23.3043 2.4082 21.7624 2.4082 20.1814C2.4082 18.6003 1.91637 17.0584 1.00091 15.7695" stroke="black" stroke-width="1.90416" stroke-linecap="round" stroke-linejoin="round"/>
<rect x="31.4785" y="0.505859" width="6.34633" height="39.9928" fill="black"/>
<path d="M29.8239 15.2778C27.4232 14.1239 27.4278 10.7038 29.8316 9.55438L31.479 8.76665L31.4691 16.0686L29.8239 15.2778Z" fill="black"/>
<path d="M29.8239 23.0747C27.4232 21.9208 27.4278 18.5007 29.8316 17.3513L31.479 16.5635L31.4691 23.8655L29.8239 23.0747Z" fill="black"/>
<path d="M29.8141 7.02068C27.4151 5.86762 27.4176 2.45065 29.8181 1.29899L31.4691 0.506956L31.4691 7.81617L29.8141 7.02068Z" fill="black"/>
<path d="M29.8239 31.1479C27.4232 29.9941 27.4278 26.5739 29.8316 25.4245L31.479 24.6368L31.4691 31.9387L29.8239 31.1479Z" fill="black"/>
<path d="M29.8374 39.7134C27.4335 38.5618 27.4358 35.1384 29.8413 33.9882L31.4788 33.2052L31.4788 40.4998L29.8374 39.7134Z" fill="black"/>
</svg>
